<?xml version="1.0" encoding="UTF-8" standalone="no"?>
<!DOCTYPE svg PUBLIC "-//W3C//DTD SVG 1.1//EN"
 "http://www.w3.org/Graphics/SVG/1.1/DTD/svg11.dtd">
<!-- Generated by graphviz version 2.47.0 (20210316.0004)
 -->
<!-- Title: dependencies Pages: 1 -->
<svg width="563pt" height="211pt"
 viewBox="0.00 0.00 563.00 211.00" xmlns="http://www.w3.org/2000/svg" xmlns:xlink="http://www.w3.org/1999/xlink">
<g id="graph0" class="graph" transform="scale(1 1) rotate(0) translate(4 207)">
<title>dependencies</title>
<polygon fill="white" stroke="transparent" points="-4,4 -4,-207 559,-207 559,4 -4,4"/>
<text text-anchor="start" x="256.51" y="-42.4" font-family="Times-12" font-weight="bold" font-size="14.00">Legend</text>
<polygon fill="#ffffb3" stroke="transparent" points="43.5,-10 43.5,-30 63.5,-30 63.5,-10 43.5,-10"/>
<text text-anchor="start" x="67.13" y="-15.4" font-family="Times-12" font-size="14.00"> &#160;Declarations</text>
<polygon fill="#8dd3c7" stroke="transparent" points="156.5,-10 156.5,-30 176.5,-30 176.5,-10 156.5,-10"/>
<text text-anchor="start" x="180.23" y="-15.4" font-family="Times-12" font-size="14.00"> &#160;Module</text>
<polygon fill="#80b1d3" stroke="transparent" points="242.5,-10 242.5,-30 262.5,-30 262.5,-10 242.5,-10"/>
<text text-anchor="start" x="266.28" y="-15.4" font-family="Times-12" font-size="14.00"> &#160;Bootstrap</text>
<polygon fill="#fdb462" stroke="transparent" points="339.5,-10 339.5,-30 359.5,-30 359.5,-10 339.5,-10"/>
<text text-anchor="start" x="363.17" y="-15.4" font-family="Times-12" font-size="14.00"> &#160;Providers</text>
<polygon fill="#fb8072" stroke="transparent" points="435.5,-10 435.5,-30 455.5,-30 455.5,-10 435.5,-10"/>
<text text-anchor="start" x="459.23" y="-15.4" font-family="Times-12" font-size="14.00"> &#160;Exports</text>
<g id="clust1" class="cluster">
<title>cluster_CommonModule</title>
<polygon fill="none" stroke="black" stroke-dasharray="1,5" points="8,-70 8,-195 547,-195 547,-70 8,-70"/>
</g>
<g id="clust3" class="cluster">
<title>cluster_CommonModule_imports</title>
<polygon fill="none" stroke="black" points="16,-78 16,-130 539,-130 539,-78 16,-78"/>
</g>
<!-- BloomFilterModule -->
<g id="node1" class="node">
<title>BloomFilterModule</title>
<polygon fill="#8dd3c7" stroke="black" points="531,-122 528,-126 507,-126 504,-122 403,-122 403,-86 531,-86 531,-122"/>
<text text-anchor="middle" x="467" y="-99.8" font-family="Times,serif" font-size="14.00">BloomFilterModule</text>
</g>
<!-- CommonModule -->
<g id="node5" class="node">
<title>CommonModule</title>
<polygon fill="#8dd3c7" stroke="black" points="321.67,-187 318.67,-191 297.67,-191 294.67,-187 210.33,-187 210.33,-151 321.67,-151 321.67,-187"/>
<text text-anchor="middle" x="266" y="-164.8" font-family="Times,serif" font-size="14.00">CommonModule</text>
</g>
<!-- BloomFilterModule&#45;&gt;CommonModule -->
<g id="edge1" class="edge">
<title>BloomFilterModule&#45;&gt;CommonModule</title>
<path fill="none" stroke="black" d="M467,-122.11C467,-141.34 467,-169 467,-169 467,-169 331.72,-169 331.72,-169"/>
<polygon fill="black" stroke="black" points="331.72,-165.5 321.72,-169 331.72,-172.5 331.72,-165.5"/>
</g>
<!-- DatabaseModule -->
<g id="node2" class="node">
<title>DatabaseModule</title>
<polygon fill="#8dd3c7" stroke="black" points="385.35,-122 382.35,-126 361.35,-126 358.35,-122 274.65,-122 274.65,-86 385.35,-86 385.35,-122"/>
<text text-anchor="middle" x="330" y="-99.8" font-family="Times,serif" font-size="14.00">DatabaseModule</text>
</g>
<!-- DatabaseModule&#45;&gt;CommonModule -->
<g id="edge2" class="edge">
<title>DatabaseModule&#45;&gt;CommonModule</title>
<path fill="none" stroke="black" d="M298.2,-122.11C298.2,-122.11 298.2,-140.99 298.2,-140.99"/>
<polygon fill="black" stroke="black" points="294.7,-140.99 298.2,-150.99 301.7,-140.99 294.7,-140.99"/>
</g>
<!-- HashingModule -->
<g id="node3" class="node">
<title>HashingModule</title>
<polygon fill="#8dd3c7" stroke="black" points="256.21,-122 253.21,-126 232.21,-126 229.21,-122 149.79,-122 149.79,-86 256.21,-86 256.21,-122"/>
<text text-anchor="middle" x="203" y="-99.8" font-family="Times,serif" font-size="14.00">HashingModule</text>
</g>
<!-- HashingModule&#45;&gt;CommonModule -->
<g id="edge3" class="edge">
<title>HashingModule&#45;&gt;CommonModule</title>
<path fill="none" stroke="black" d="M233.13,-122.11C233.13,-122.11 233.13,-140.99 233.13,-140.99"/>
<polygon fill="black" stroke="black" points="229.63,-140.99 233.13,-150.99 236.63,-140.99 229.63,-140.99"/>
</g>
<!-- SwaggerModule -->
<g id="node4" class="node">
<title>SwaggerModule</title>
<polygon fill="#8dd3c7" stroke="black" points="132.03,-122 129.03,-126 108.03,-126 105.03,-122 23.97,-122 23.97,-86 132.03,-86 132.03,-122"/>
<text text-anchor="middle" x="78" y="-99.8" font-family="Times,serif" font-size="14.00">SwaggerModule</text>
</g>
<!-- SwaggerModule&#45;&gt;CommonModule -->
<g id="edge4" class="edge">
<title>SwaggerModule&#45;&gt;CommonModule</title>
<path fill="none" stroke="black" d="M78,-122.11C78,-141.34 78,-169 78,-169 78,-169 200.1,-169 200.1,-169"/>
<polygon fill="black" stroke="black" points="200.1,-172.5 210.1,-169 200.1,-165.5 200.1,-172.5"/>
</g>
</g>
</svg>
