<?xml version="1.0" encoding="UTF-8" standalone="no"?>
<!DOCTYPE svg PUBLIC "-//W3C//DTD SVG 1.1//EN"
 "http://www.w3.org/Graphics/SVG/1.1/DTD/svg11.dtd">
<!-- Generated by graphviz version 2.47.0 (20210316.0004)
 -->
<!-- Title: dependencies Pages: 1 -->
<svg width="670pt" height="284pt"
 viewBox="0.00 0.00 670.00 284.00" xmlns="http://www.w3.org/2000/svg" xmlns:xlink="http://www.w3.org/1999/xlink">
<g id="graph0" class="graph" transform="scale(1 1) rotate(0) translate(4 280)">
<title>dependencies</title>
<polygon fill="white" stroke="transparent" points="-4,4 -4,-280 666,-280 666,4 -4,4"/>
<text text-anchor="start" x="310.01" y="-42.4" font-family="Times-12" font-weight="bold" font-size="14.00">Legend</text>
<polygon fill="#ffffb3" stroke="transparent" points="97,-10 97,-30 117,-30 117,-10 97,-10"/>
<text text-anchor="start" x="120.63" y="-15.4" font-family="Times-12" font-size="14.00"> &#160;Declarations</text>
<polygon fill="#8dd3c7" stroke="transparent" points="210,-10 210,-30 230,-30 230,-10 210,-10"/>
<text text-anchor="start" x="233.73" y="-15.4" font-family="Times-12" font-size="14.00"> &#160;Module</text>
<polygon fill="#80b1d3" stroke="transparent" points="296,-10 296,-30 316,-30 316,-10 296,-10"/>
<text text-anchor="start" x="319.78" y="-15.4" font-family="Times-12" font-size="14.00"> &#160;Bootstrap</text>
<polygon fill="#fdb462" stroke="transparent" points="393,-10 393,-30 413,-30 413,-10 393,-10"/>
<text text-anchor="start" x="416.67" y="-15.4" font-family="Times-12" font-size="14.00"> &#160;Providers</text>
<polygon fill="#fb8072" stroke="transparent" points="489,-10 489,-30 509,-30 509,-10 489,-10"/>
<text text-anchor="start" x="512.73" y="-15.4" font-family="Times-12" font-size="14.00"> &#160;Exports</text>
<g id="clust1" class="cluster">
<title>cluster_UserModule</title>
<polygon fill="none" stroke="black" stroke-dasharray="1,5" points="8,-70 8,-268 654,-268 654,-70 8,-70"/>
</g>
<g id="clust6" class="cluster">
<title>cluster_UserModule_providers</title>
<polygon fill="none" stroke="black" points="150,-78 150,-130 646,-130 646,-78 150,-78"/>
</g>
<g id="clust3" class="cluster">
<title>cluster_UserModule_imports</title>
<polygon fill="none" stroke="black" points="16,-78 16,-130 142,-130 142,-78 16,-78"/>
</g>
<g id="clust4" class="cluster">
<title>cluster_UserModule_exports</title>
<polygon fill="none" stroke="black" points="231,-208 231,-260 411,-260 411,-208 231,-208"/>
</g>
<!-- DatabaseModule -->
<g id="node1" class="node">
<title>DatabaseModule</title>
<polygon fill="#8dd3c7" stroke="black" points="134.35,-122 131.35,-126 110.35,-126 107.35,-122 23.65,-122 23.65,-86 134.35,-86 134.35,-122"/>
<text text-anchor="middle" x="79" y="-99.8" font-family="Times,serif" font-size="14.00">DatabaseModule</text>
</g>
<!-- UserModule -->
<g id="node2" class="node">
<title>UserModule</title>
<polygon fill="#8dd3c7" stroke="black" points="363.98,-187 360.98,-191 339.98,-191 336.98,-187 278.02,-187 278.02,-151 363.98,-151 363.98,-187"/>
<text text-anchor="middle" x="321" y="-164.8" font-family="Times,serif" font-size="14.00">UserModule</text>
</g>
<!-- DatabaseModule&#45;&gt;UserModule -->
<g id="edge1" class="edge">
<title>DatabaseModule&#45;&gt;UserModule</title>
<path fill="none" stroke="black" d="M79,-122.11C79,-141.34 79,-169 79,-169 79,-169 268.01,-169 268.01,-169"/>
<polygon fill="black" stroke="black" points="268.01,-172.5 278.01,-169 268.01,-165.5 268.01,-172.5"/>
</g>
<!-- CLASS_TOKENS.USER  -->
<g id="node3" class="node">
<title>CLASS_TOKENS.USER </title>
<polygon fill="#fb8072" stroke="black" points="403.05,-252 238.95,-252 238.95,-216 403.05,-216 403.05,-252"/>
<text text-anchor="middle" x="321" y="-229.8" font-family="Times,serif" font-size="14.00">CLASS_TOKENS.USER </text>
</g>
<!-- UserModule&#45;&gt;CLASS_TOKENS.USER  -->
<g id="edge2" class="edge">
<title>UserModule&#45;&gt;CLASS_TOKENS.USER </title>
<path fill="none" stroke="black" stroke-dasharray="5,2" d="M321,-187.11C321,-187.11 321,-205.99 321,-205.99"/>
<polygon fill="black" stroke="black" points="317.5,-205.99 321,-215.99 324.5,-205.99 317.5,-205.99"/>
</g>
<!-- CreatingService -->
<g id="node4" class="node">
<title>CreatingService</title>
<ellipse fill="#fdb462" stroke="black" cx="565" cy="-104" rx="73.49" ry="18"/>
<text text-anchor="middle" x="565" y="-99.8" font-family="Times,serif" font-size="14.00">CreatingService</text>
</g>
<!-- CreatingService&#45;&gt;UserModule -->
<g id="edge3" class="edge">
<title>CreatingService&#45;&gt;UserModule</title>
<path fill="none" stroke="black" d="M565,-122.11C565,-141.34 565,-169 565,-169 565,-169 374.06,-169 374.06,-169"/>
<polygon fill="black" stroke="black" points="374.06,-165.5 364.06,-169 374.06,-172.5 374.06,-165.5"/>
</g>
<!-- EditingService -->
<g id="node5" class="node">
<title>EditingService</title>
<ellipse fill="#fdb462" stroke="black" cx="405" cy="-104" rx="68.36" ry="18"/>
<text text-anchor="middle" x="405" y="-99.8" font-family="Times,serif" font-size="14.00">EditingService</text>
</g>
<!-- EditingService&#45;&gt;UserModule -->
<g id="edge4" class="edge">
<title>EditingService&#45;&gt;UserModule</title>
<path fill="none" stroke="black" d="M350.28,-115.03C350.28,-115.03 350.28,-140.78 350.28,-140.78"/>
<polygon fill="black" stroke="black" points="346.78,-140.78 350.28,-150.78 353.78,-140.78 346.78,-140.78"/>
</g>
<!-- RemovingService -->
<g id="node6" class="node">
<title>RemovingService</title>
<ellipse fill="#fdb462" stroke="black" cx="238" cy="-104" rx="80.46" ry="18"/>
<text text-anchor="middle" x="238" y="-99.8" font-family="Times,serif" font-size="14.00">RemovingService</text>
</g>
<!-- RemovingService&#45;&gt;UserModule -->
<g id="edge5" class="edge">
<title>RemovingService&#45;&gt;UserModule</title>
<path fill="none" stroke="black" d="M298.12,-115.92C298.12,-115.92 298.12,-140.77 298.12,-140.77"/>
<polygon fill="black" stroke="black" points="294.62,-140.77 298.12,-150.77 301.62,-140.77 294.62,-140.77"/>
</g>
</g>
</svg>
