<?xml version="1.0" encoding="UTF-8" standalone="no"?>
<!DOCTYPE svg PUBLIC "-//W3C//DTD SVG 1.1//EN"
 "http://www.w3.org/Graphics/SVG/1.1/DTD/svg11.dtd">
<!-- Generated by graphviz version 2.47.0 (20210316.0004)
 -->
<!-- Title: dependencies Pages: 1 -->
<svg width="572pt" height="211pt"
 viewBox="0.00 0.00 572.00 211.00" xmlns="http://www.w3.org/2000/svg" xmlns:xlink="http://www.w3.org/1999/xlink">
<g id="graph0" class="graph" transform="scale(1 1) rotate(0) translate(4 207)">
<title>dependencies</title>
<polygon fill="white" stroke="transparent" points="-4,4 -4,-207 568,-207 568,4 -4,4"/>
<text text-anchor="start" x="261.01" y="-42.4" font-family="Times-12" font-weight="bold" font-size="14.00">Legend</text>
<polygon fill="#ffffb3" stroke="transparent" points="48,-10 48,-30 68,-30 68,-10 48,-10"/>
<text text-anchor="start" x="71.63" y="-15.4" font-family="Times-12" font-size="14.00"> &#160;Declarations</text>
<polygon fill="#8dd3c7" stroke="transparent" points="161,-10 161,-30 181,-30 181,-10 161,-10"/>
<text text-anchor="start" x="184.73" y="-15.4" font-family="Times-12" font-size="14.00"> &#160;Module</text>
<polygon fill="#80b1d3" stroke="transparent" points="247,-10 247,-30 267,-30 267,-10 247,-10"/>
<text text-anchor="start" x="270.78" y="-15.4" font-family="Times-12" font-size="14.00"> &#160;Bootstrap</text>
<polygon fill="#fdb462" stroke="transparent" points="344,-10 344,-30 364,-30 364,-10 344,-10"/>
<text text-anchor="start" x="367.67" y="-15.4" font-family="Times-12" font-size="14.00"> &#160;Providers</text>
<polygon fill="#fb8072" stroke="transparent" points="440,-10 440,-30 460,-30 460,-10 440,-10"/>
<text text-anchor="start" x="463.73" y="-15.4" font-family="Times-12" font-size="14.00"> &#160;Exports</text>
<g id="clust1" class="cluster">
<title>cluster_AuthModule</title>
<polygon fill="none" stroke="black" stroke-dasharray="1,5" points="8,-70 8,-195 556,-195 556,-70 8,-70"/>
</g>
<g id="clust6" class="cluster">
<title>cluster_AuthModule_providers</title>
<polygon fill="none" stroke="black" points="396,-78 396,-130 548,-130 548,-78 396,-78"/>
</g>
<g id="clust3" class="cluster">
<title>cluster_AuthModule_imports</title>
<polygon fill="none" stroke="black" points="16,-78 16,-130 388,-130 388,-78 16,-78"/>
</g>
<!-- BloomFilterModule -->
<g id="node1" class="node">
<title>BloomFilterModule</title>
<polygon fill="#8dd3c7" stroke="black" points="380,-122 377,-126 356,-126 353,-122 252,-122 252,-86 380,-86 380,-122"/>
<text text-anchor="middle" x="316" y="-99.8" font-family="Times,serif" font-size="14.00">BloomFilterModule</text>
</g>
<!-- AuthModule -->
<g id="node4" class="node">
<title>AuthModule</title>
<polygon fill="#8dd3c7" stroke="black" points="291.55,-187 288.55,-191 267.55,-191 264.55,-187 204.45,-187 204.45,-151 291.55,-151 291.55,-187"/>
<text text-anchor="middle" x="248" y="-164.8" font-family="Times,serif" font-size="14.00">AuthModule</text>
</g>
<!-- BloomFilterModule&#45;&gt;AuthModule -->
<g id="edge1" class="edge">
<title>BloomFilterModule&#45;&gt;AuthModule</title>
<path fill="none" stroke="black" d="M271.89,-122.11C271.89,-122.11 271.89,-140.99 271.89,-140.99"/>
<polygon fill="black" stroke="black" points="268.39,-140.99 271.89,-150.99 275.39,-140.99 268.39,-140.99"/>
</g>
<!-- HashingModule -->
<g id="node2" class="node">
<title>HashingModule</title>
<polygon fill="#8dd3c7" stroke="black" points="234.21,-122 231.21,-126 210.21,-126 207.21,-122 127.79,-122 127.79,-86 234.21,-86 234.21,-122"/>
<text text-anchor="middle" x="181" y="-99.8" font-family="Times,serif" font-size="14.00">HashingModule</text>
</g>
<!-- HashingModule&#45;&gt;AuthModule -->
<g id="edge2" class="edge">
<title>HashingModule&#45;&gt;AuthModule</title>
<path fill="none" stroke="black" d="M219.16,-122.11C219.16,-122.11 219.16,-140.99 219.16,-140.99"/>
<polygon fill="black" stroke="black" points="215.66,-140.99 219.16,-150.99 222.66,-140.99 215.66,-140.99"/>
</g>
<!-- UserModule -->
<g id="node3" class="node">
<title>UserModule</title>
<polygon fill="#8dd3c7" stroke="black" points="109.98,-122 106.98,-126 85.98,-126 82.98,-122 24.02,-122 24.02,-86 109.98,-86 109.98,-122"/>
<text text-anchor="middle" x="67" y="-99.8" font-family="Times,serif" font-size="14.00">UserModule</text>
</g>
<!-- UserModule&#45;&gt;AuthModule -->
<g id="edge3" class="edge">
<title>UserModule&#45;&gt;AuthModule</title>
<path fill="none" stroke="black" d="M67,-122.11C67,-141.34 67,-169 67,-169 67,-169 194.18,-169 194.18,-169"/>
<polygon fill="black" stroke="black" points="194.18,-172.5 204.18,-169 194.18,-165.5 194.18,-172.5"/>
</g>
<!-- LogoutService -->
<g id="node5" class="node">
<title>LogoutService</title>
<ellipse fill="#fdb462" stroke="black" cx="472" cy="-104" rx="67.78" ry="18"/>
<text text-anchor="middle" x="472" y="-99.8" font-family="Times,serif" font-size="14.00">LogoutService</text>
</g>
<!-- LogoutService&#45;&gt;AuthModule -->
<g id="edge4" class="edge">
<title>LogoutService&#45;&gt;AuthModule</title>
<path fill="none" stroke="black" d="M472,-122.11C472,-141.34 472,-169 472,-169 472,-169 301.72,-169 301.72,-169"/>
<polygon fill="black" stroke="black" points="301.72,-165.5 291.72,-169 301.72,-172.5 301.72,-165.5"/>
</g>
</g>
</svg>
