<?xml version="1.0" encoding="UTF-8" standalone="no"?>
<!DOCTYPE svg PUBLIC "-//W3C//DTD SVG 1.1//EN"
 "http://www.w3.org/Graphics/SVG/1.1/DTD/svg11.dtd">
<!-- Generated by graphviz version 2.47.0 (20210316.0004)
 -->
<!-- Title: dependencies Pages: 1 -->
<svg width="504pt" height="284pt"
 viewBox="0.00 0.00 504.00 284.00" xmlns="http://www.w3.org/2000/svg" xmlns:xlink="http://www.w3.org/1999/xlink">
<g id="graph0" class="graph" transform="scale(1 1) rotate(0) translate(4 280)">
<title>dependencies</title>
<polygon fill="white" stroke="transparent" points="-4,4 -4,-280 500,-280 500,4 -4,4"/>
<text text-anchor="start" x="227.01" y="-42.4" font-family="Times-12" font-weight="bold" font-size="14.00">Legend</text>
<polygon fill="#ffffb3" stroke="transparent" points="14,-10 14,-30 34,-30 34,-10 14,-10"/>
<text text-anchor="start" x="37.63" y="-15.4" font-family="Times-12" font-size="14.00"> &#160;Declarations</text>
<polygon fill="#8dd3c7" stroke="transparent" points="127,-10 127,-30 147,-30 147,-10 127,-10"/>
<text text-anchor="start" x="150.73" y="-15.4" font-family="Times-12" font-size="14.00"> &#160;Module</text>
<polygon fill="#80b1d3" stroke="transparent" points="213,-10 213,-30 233,-30 233,-10 213,-10"/>
<text text-anchor="start" x="236.78" y="-15.4" font-family="Times-12" font-size="14.00"> &#160;Bootstrap</text>
<polygon fill="#fdb462" stroke="transparent" points="310,-10 310,-30 330,-30 330,-10 310,-10"/>
<text text-anchor="start" x="333.67" y="-15.4" font-family="Times-12" font-size="14.00"> &#160;Providers</text>
<polygon fill="#fb8072" stroke="transparent" points="406,-10 406,-30 426,-30 426,-10 406,-10"/>
<text text-anchor="start" x="429.73" y="-15.4" font-family="Times-12" font-size="14.00"> &#160;Exports</text>
<g id="clust1" class="cluster">
<title>cluster_BloomFilterModule</title>
<polygon fill="none" stroke="black" stroke-dasharray="1,5" points="75,-70 75,-268 421,-268 421,-70 75,-70"/>
</g>
<g id="clust4" class="cluster">
<title>cluster_BloomFilterModule_exports</title>
<polygon fill="none" stroke="black" points="186,-208 186,-260 332,-260 332,-208 186,-208"/>
</g>
<g id="clust3" class="cluster">
<title>cluster_BloomFilterModule_imports</title>
<polygon fill="none" stroke="black" points="281,-78 281,-130 413,-130 413,-78 281,-78"/>
</g>
<g id="clust6" class="cluster">
<title>cluster_BloomFilterModule_providers</title>
<polygon fill="none" stroke="black" points="83,-78 83,-130 273,-130 273,-78 83,-78"/>
</g>
<!-- AppRedisModule -->
<g id="node1" class="node">
<title>AppRedisModule</title>
<polygon fill="#8dd3c7" stroke="black" points="404.54,-122 401.54,-126 380.54,-126 377.54,-122 289.46,-122 289.46,-86 404.54,-86 404.54,-122"/>
<text text-anchor="middle" x="347" y="-99.8" font-family="Times,serif" font-size="14.00">AppRedisModule</text>
</g>
<!-- BloomFilterModule -->
<g id="node2" class="node">
<title>BloomFilterModule</title>
<polygon fill="#8dd3c7" stroke="black" points="323,-187 320,-191 299,-191 296,-187 195,-187 195,-151 323,-151 323,-187"/>
<text text-anchor="middle" x="259" y="-164.8" font-family="Times,serif" font-size="14.00">BloomFilterModule</text>
</g>
<!-- AppRedisModule&#45;&gt;BloomFilterModule -->
<g id="edge1" class="edge">
<title>AppRedisModule&#45;&gt;BloomFilterModule</title>
<path fill="none" stroke="black" d="M306.11,-122.11C306.11,-122.11 306.11,-140.99 306.11,-140.99"/>
<polygon fill="black" stroke="black" points="302.61,-140.99 306.11,-150.99 309.61,-140.99 302.61,-140.99"/>
</g>
<!-- BloomFilterService  -->
<g id="node3" class="node">
<title>BloomFilterService </title>
<polygon fill="#fb8072" stroke="black" points="323.93,-252 194.07,-252 194.07,-216 323.93,-216 323.93,-252"/>
<text text-anchor="middle" x="259" y="-229.8" font-family="Times,serif" font-size="14.00">BloomFilterService </text>
</g>
<!-- BloomFilterModule&#45;&gt;BloomFilterService  -->
<g id="edge2" class="edge">
<title>BloomFilterModule&#45;&gt;BloomFilterService </title>
<path fill="none" stroke="black" stroke-dasharray="5,2" d="M259,-187.11C259,-187.11 259,-205.99 259,-205.99"/>
<polygon fill="black" stroke="black" points="255.5,-205.99 259,-215.99 262.5,-205.99 255.5,-205.99"/>
</g>
<!-- BloomFilterService -->
<g id="node4" class="node">
<title>BloomFilterService</title>
<ellipse fill="#fdb462" stroke="black" cx="178" cy="-104" rx="87.41" ry="18"/>
<text text-anchor="middle" x="178" y="-99.8" font-family="Times,serif" font-size="14.00">BloomFilterService</text>
</g>
<!-- BloomFilterService&#45;&gt;BloomFilterModule -->
<g id="edge3" class="edge">
<title>BloomFilterService&#45;&gt;BloomFilterModule</title>
<path fill="none" stroke="black" d="M230.1,-118.75C230.1,-118.75 230.1,-140.59 230.1,-140.59"/>
<polygon fill="black" stroke="black" points="226.6,-140.59 230.1,-150.59 233.6,-140.59 226.6,-140.59"/>
</g>
</g>
</svg>
