<?xml version="1.0" encoding="UTF-8" standalone="no"?>
<!DOCTYPE svg PUBLIC "-//W3C//DTD SVG 1.1//EN"
 "http://www.w3.org/Graphics/SVG/1.1/DTD/svg11.dtd">
<!-- Generated by graphviz version 2.47.0 (20210316.0004)
 -->
<!-- Title: dependencies Pages: 1 -->
<svg width="504pt" height="211pt"
 viewBox="0.00 0.00 504.00 211.00" xmlns="http://www.w3.org/2000/svg" xmlns:xlink="http://www.w3.org/1999/xlink">
<g id="graph0" class="graph" transform="scale(1 1) rotate(0) translate(4 207)">
<title>dependencies</title>
<polygon fill="white" stroke="transparent" points="-4,4 -4,-207 500,-207 500,4 -4,4"/>
<text text-anchor="start" x="227.01" y="-42.4" font-family="Times-12" font-weight="bold" font-size="14.00">Legend</text>
<polygon fill="#ffffb3" stroke="transparent" points="14,-10 14,-30 34,-30 34,-10 14,-10"/>
<text text-anchor="start" x="37.63" y="-15.4" font-family="Times-12" font-size="14.00"> &#160;Declarations</text>
<polygon fill="#8dd3c7" stroke="transparent" points="127,-10 127,-30 147,-30 147,-10 127,-10"/>
<text text-anchor="start" x="150.73" y="-15.4" font-family="Times-12" font-size="14.00"> &#160;Module</text>
<polygon fill="#80b1d3" stroke="transparent" points="213,-10 213,-30 233,-30 233,-10 213,-10"/>
<text text-anchor="start" x="236.78" y="-15.4" font-family="Times-12" font-size="14.00"> &#160;Bootstrap</text>
<polygon fill="#fdb462" stroke="transparent" points="310,-10 310,-30 330,-30 330,-10 310,-10"/>
<text text-anchor="start" x="333.67" y="-15.4" font-family="Times-12" font-size="14.00"> &#160;Providers</text>
<polygon fill="#fb8072" stroke="transparent" points="406,-10 406,-30 426,-30 426,-10 406,-10"/>
<text text-anchor="start" x="429.73" y="-15.4" font-family="Times-12" font-size="14.00"> &#160;Exports</text>
<g id="clust1" class="cluster">
<title>cluster_BlogModule</title>
<polygon fill="none" stroke="black" stroke-dasharray="1,5" points="34.5,-70 34.5,-195 461.5,-195 461.5,-70 34.5,-70"/>
</g>
<g id="clust3" class="cluster">
<title>cluster_BlogModule_imports</title>
<polygon fill="none" stroke="black" points="42.5,-78 42.5,-130 453.5,-130 453.5,-78 42.5,-78"/>
</g>
<!-- CommentingModule -->
<g id="node1" class="node">
<title>CommentingModule</title>
<polygon fill="#8dd3c7" stroke="black" points="445.66,-122 442.66,-126 421.66,-126 418.66,-122 313.34,-122 313.34,-86 445.66,-86 445.66,-122"/>
<text text-anchor="middle" x="379.5" y="-99.8" font-family="Times,serif" font-size="14.00">CommentingModule</text>
</g>
<!-- BlogModule -->
<g id="node4" class="node">
<title>BlogModule</title>
<polygon fill="#8dd3c7" stroke="black" points="284.78,-187 281.78,-191 260.78,-191 257.78,-187 198.22,-187 198.22,-151 284.78,-151 284.78,-187"/>
<text text-anchor="middle" x="241.5" y="-164.8" font-family="Times,serif" font-size="14.00">BlogModule</text>
</g>
<!-- CommentingModule&#45;&gt;BlogModule -->
<g id="edge1" class="edge">
<title>CommentingModule&#45;&gt;BlogModule</title>
<path fill="none" stroke="black" d="M379.5,-122.11C379.5,-141.34 379.5,-169 379.5,-169 379.5,-169 294.79,-169 294.79,-169"/>
<polygon fill="black" stroke="black" points="294.79,-165.5 284.79,-169 294.79,-172.5 294.79,-165.5"/>
</g>
<!-- DraftingModule -->
<g id="node2" class="node">
<title>DraftingModule</title>
<polygon fill="#8dd3c7" stroke="black" points="294.97,-122 291.97,-126 270.97,-126 267.97,-122 188.03,-122 188.03,-86 294.97,-86 294.97,-122"/>
<text text-anchor="middle" x="241.5" y="-99.8" font-family="Times,serif" font-size="14.00">DraftingModule</text>
</g>
<!-- DraftingModule&#45;&gt;BlogModule -->
<g id="edge2" class="edge">
<title>DraftingModule&#45;&gt;BlogModule</title>
<path fill="none" stroke="black" d="M241.5,-122.11C241.5,-122.11 241.5,-140.99 241.5,-140.99"/>
<polygon fill="black" stroke="black" points="238,-140.99 241.5,-150.99 245,-140.99 238,-140.99"/>
</g>
<!-- PublishingModule -->
<g id="node3" class="node">
<title>PublishingModule</title>
<polygon fill="#8dd3c7" stroke="black" points="170.45,-122 167.45,-126 146.45,-126 143.45,-122 50.55,-122 50.55,-86 170.45,-86 170.45,-122"/>
<text text-anchor="middle" x="110.5" y="-99.8" font-family="Times,serif" font-size="14.00">PublishingModule</text>
</g>
<!-- PublishingModule&#45;&gt;BlogModule -->
<g id="edge3" class="edge">
<title>PublishingModule&#45;&gt;BlogModule</title>
<path fill="none" stroke="black" d="M110.5,-122.11C110.5,-141.34 110.5,-169 110.5,-169 110.5,-169 187.88,-169 187.88,-169"/>
<polygon fill="black" stroke="black" points="187.88,-172.5 197.88,-169 187.88,-165.5 187.88,-172.5"/>
</g>
</g>
</svg>
